<svg xmlns="http://www.w3.org/2000/svg" width="1024" height="1024" viewBox="0 0 1024 1024">
  <!-- HAI macOS 应用图标 · 夜墨（深色）版
       ─────────────────────────────────────────────────────────────────────
       形状：Apple macOS 应用图标网格 —— 1024 画布内 824×824 圆角方（squircle，
             四周留白 100，连续曲率圆角，边缘平直段长 210.87）。
             下方 #tile 的路径由 Apple 自家图标（Claude.app 1024 层）的 alpha 边界
             反求而来，N=17 样条拟合，与参考边界最大法向偏差 0.10px@1024。
             改动需重跑 build/make-icons.mjs 重新生成 HAI.icns。
       配色：取自品牌【墨·浓淡】深色版（brand/hai-logo-dark.svg）与桌面端 ink 主题
             （desktop/app/src/index.css）—— 底 #1a1614 暖黑，笔锋
             亮墨 #F2F1EE / 朱砂 #C23A2E / 淡墨 #A6A6B0。
       ⚠️ #mark 与 #tile 的 id 被 make-icons.mjs 的「小尺寸简化」样式覆盖引用，勿改名。
  -->
  <defs>
    <!-- 底：上暖下冷的纵向渐变，给圆角方一点体积感 -->
    <linearGradient id="tileBg" x1="0" y1="0" x2="0" y2="1">
      <stop offset="0" stop-color="#2c2622"/>
      <stop offset="0.52" stop-color="#1c1714"/>
      <stop offset="1" stop-color="#110e0c"/>
    </linearGradient>
    <!-- 顶部柔光：macOS 图标常见的「玻璃面」高光 -->
    <radialGradient id="tileGlow" cx="0.5" cy="0.04" r="0.9">
      <stop offset="0" stop-color="#ffffff" stop-opacity="0.10"/>
      <stop offset="0.5" stop-color="#ffffff" stop-opacity="0.025"/>
      <stop offset="1" stop-color="#ffffff" stop-opacity="0"/>
    </radialGradient>
    <!-- 内描边：顶亮底暗的 1px 玻璃边，避免深色底在深色桌面上糊成一团 -->
    <linearGradient id="tileRim" x1="0" y1="0" x2="0" y2="1">
      <stop offset="0" stop-color="#ffffff" stop-opacity="0.24"/>
      <stop offset="0.45" stop-color="#ffffff" stop-opacity="0.07"/>
      <stop offset="1" stop-color="#ffffff" stop-opacity="0.03"/>
    </linearGradient>
    <filter id="tileShadow" x="-25%" y="-25%" width="150%" height="150%">
      <feDropShadow dx="0" dy="14" stdDeviation="16" flood-color="#000000" flood-opacity="0.5"/>
    </filter>

    <!-- 824×824 连续曲率圆角方（squircle） -->
    <path id="tile" d="M 310.87 100 L 713.13 100 C 720.04 100 726.96 100.43 733.83 101.05 C 740.71 101.66 747.62 102.38 754.39 103.66 C 761.16 104.95 767.91 106.66 774.48 108.75 C 781.04 110.85 787.46 113.5 793.81 116.21 C 800.15 118.93 806.44 121.85 812.54 125.06 C 818.65 128.28 824.63 131.79 830.43 135.52 C 836.23 139.25 841.93 143.2 847.33 147.47 C 852.73 151.75 857.97 156.3 862.83 161.17 C 867.7 166.03 872.25 171.27 876.53 176.67 C 880.8 182.07 884.75 187.77 888.48 193.57 C 892.21 199.37 895.72 205.35 898.94 211.46 C 902.15 217.56 905.07 223.85 907.79 230.19 C 910.5 236.54 913.15 242.96 915.25 249.52 C 917.34 256.09 919.05 262.84 920.34 269.61 C 921.62 276.38 922.34 283.29 922.95 290.17 C 923.57 297.04 924 303.96 924 310.87 L 924 713.13 C 924 720.04 923.57 726.96 922.95 733.83 C 922.34 740.71 921.62 747.62 920.34 754.39 C 919.05 761.16 917.34 767.91 915.25 774.48 C 913.15 781.04 910.5 787.46 907.79 793.81 C 905.07 800.15 902.15 806.44 898.94 812.54 C 895.72 818.65 892.21 824.63 888.48 830.43 C 884.75 836.23 880.8 841.93 876.53 847.33 C 872.25 852.73 867.7 857.97 862.83 862.83 C 857.97 867.7 852.73 872.25 847.33 876.53 C 841.93 880.8 836.23 884.75 830.43 888.48 C 824.63 892.21 818.65 895.72 812.54 898.94 C 806.44 902.15 800.15 905.07 793.81 907.79 C 787.46 910.5 781.04 913.15 774.48 915.25 C 767.91 917.34 761.16 919.05 754.39 920.34 C 747.62 921.62 740.71 922.34 733.83 922.95 C 726.96 923.57 720.04 924 713.13 924 L 310.87 924 C 303.96 924 297.04 923.57 290.17 922.95 C 283.29 922.34 276.38 921.62 269.61 920.34 C 262.84 919.05 256.09 917.34 249.52 915.25 C 242.96 913.15 236.54 910.5 230.19 907.79 C 223.85 905.07 217.56 902.15 211.46 898.94 C 205.35 895.72 199.37 892.21 193.57 888.48 C 187.77 884.75 182.07 880.8 176.67 876.53 C 171.27 872.25 166.03 867.7 161.17 862.83 C 156.3 857.97 151.75 852.73 147.47 847.33 C 143.2 841.93 139.25 836.23 135.52 830.43 C 131.79 824.63 128.28 818.65 125.06 812.54 C 121.85 806.44 118.93 800.15 116.21 793.81 C 113.5 787.46 110.85 781.04 108.75 774.48 C 106.66 767.91 104.95 761.16 103.66 754.39 C 102.38 747.62 101.66 740.71 101.05 733.83 C 100.43 726.96 100 720.04 100 713.13 L 100 310.87 C 100 303.96 100.43 297.04 101.05 290.17 C 101.66 283.29 102.38 276.38 103.66 269.61 C 104.95 262.84 106.66 256.09 108.75 249.52 C 110.85 242.96 113.5 236.54 116.21 230.19 C 118.93 223.85 121.85 217.56 125.06 211.46 C 128.28 205.35 131.79 199.37 135.52 193.57 C 139.25 187.77 143.2 182.07 147.47 176.67 C 151.75 171.27 156.3 166.03 161.17 161.17 C 166.03 156.3 171.27 151.75 176.67 147.47 C 182.07 143.2 187.77 139.25 193.57 135.52 C 199.37 131.79 205.35 128.28 211.46 125.06 C 217.56 121.85 223.85 118.93 230.19 116.21 C 236.54 113.5 242.96 110.85 249.52 108.75 C 256.09 106.66 262.84 104.95 269.61 103.66 C 276.38 102.38 283.29 101.66 290.17 101.05 C 297.04 100.43 303.96 100 310.87 100 Z"/>

    <!-- 品牌字标（brand/hai-logo-dark.svg 深色版，原样几何） -->
    <g id="mark" fill="none" stroke-width="22" stroke-linecap="round" stroke-linejoin="round">
      <path stroke="#F2F1EE" d="M100 300 L132 120"/>
      <path stroke="#F2F1EE" d="M115 215 L286 215"/>
      <path stroke="#C23A2E" d="M210 300 L251 70"/>
      <path stroke="#A6A6B0" d="M251 70 L345 300"/>
      <path stroke="#A6A6B0" d="M430 300 L462 120"/>
    </g>
  </defs>

  <g id="shadowLayer"><use href="#tile" filter="url(#tileShadow)" fill="#000000"/></g>
  <use href="#tile" fill="url(#tileBg)"/>
  <g id="glowLayer"><use href="#tile" fill="url(#tileGlow)"/></g>
  <g id="rimLayer"><use href="#tile" fill="none" stroke="url(#tileRim)" stroke-width="2.5"/></g>

  <g id="markLayer" transform="translate(162.27,281.75) scale(1.24)"><use href="#mark"/></g>
</svg>
